<svg xmlns="http://www.w3.org/2000/svg" data-name="Layer 1" viewBox="0 0 100 125" x="0px" y="0px"><title>01</title><path d="M70.99774,45.49931h-6.164a15.40551,15.40551,0,0,0-1.1665-2.804l4.36248-4.36316a1.50237,1.50237,0,0,0,0-2.12434l-4.24-4.24064a1.50193,1.50193,0,0,0-2.124,0l-4.36249,4.36315a15.39869,15.39869,0,0,0-2.80353-1.16668V28.99881a1.50205,1.50205,0,0,0-1.502-1.50225h-5.996a1.50211,1.50211,0,0,0-1.502,1.50225v6.16488a15.40771,15.40771,0,0,0-2.80694,1.1632l-4.359-4.35967a1.50193,1.50193,0,0,0-2.124,0l-4.24,4.24064a1.50237,1.50237,0,0,0,0,2.12434l4.359,4.35968a15.40193,15.40193,0,0,0-1.163,2.80743h-6.164a1.50211,1.50211,0,0,0-1.502,1.50225v5.99688a1.50215,1.50215,0,0,0,1.502,1.50225h6.164a15.40318,15.40318,0,0,0,1.1665,2.80389l-4.36248,4.36316a1.50237,1.50237,0,0,0,0,2.12434l4.24,4.24064a1.50182,1.50182,0,0,0,2.124,0l4.36249-4.36315a15.39585,15.39585,0,0,0,2.80346,1.16668v6.16494a1.50215,1.50215,0,0,0,1.502,1.50225h5.996a1.50209,1.50209,0,0,0,1.502-1.50225V64.83625a15.40178,15.40178,0,0,0,2.807-1.1632l4.359,4.35967a1.50182,1.50182,0,0,0,2.124,0l4.24-4.24064a1.50237,1.50237,0,0,0,0-2.12434l-4.359-4.35962a15.41035,15.41035,0,0,0,1.163-2.80743h6.164a1.50209,1.50209,0,0,0,1.502-1.50225V47.00156A1.50205,1.50205,0,0,0,70.99774,45.49931Zm-20.998,11.50176a7.00107,7.00107,0,1,1,7-7.00107A7.00057,7.00057,0,0,1,49.99969,57.00107Zm9.11994,28.87648,1.96,7.757a45.03281,45.03281,0,0,1-48.7273-68.28575l-7.3526-7.35373h20V37.99817l-6.84161-6.84266a37.03457,37.03457,0,0,0,40.96155,54.722ZM87.63672,74.64079l7.363,7.3641h-20V62.00183l6.82959,6.83063a37.02089,37.02089,0,0,0-40.9494-54.71l-1.96-7.757a45.02168,45.02168,0,0,1,48.7168,68.27538Z"/><text x="0" y="115" fill="#000000" font-size="5px" font-weight="bold" font-family="'Helvetica Neue', Helvetica, Arial-Unicode, Arial, Sans-serif">Created by Markus</text><text x="0" y="120" fill="#000000" font-size="5px" font-weight="bold" font-family="'Helvetica Neue', Helvetica, Arial-Unicode, Arial, Sans-serif">from the Noun Project</text></svg>